<svg width="74" height="78" viewBox="0 0 74 78" fill="none" xmlns="http://www.w3.org/2000/svg">
<path fill-rule="evenodd" clip-rule="evenodd" d="M31.7225 0.431806C25.5275 1.52931 18.036 5.97581 14.1795 10.8453L12.5515 12.9008H14.1115C15.2045 12.9008 16.6025 12.1883 18.7785 10.5228C31.592 0.715305 47.0365 3.64381 53.6705 17.1393C56.4055 22.7023 55.89 33.0063 52.678 36.9728L51.7805 38.0808L49.583 36.7853C48.3745 36.0733 46.388 34.7638 45.169 33.8758L42.952 32.2618L45.2305 31.1038C49.088 29.1433 51.7495 24.7183 50.856 21.7513C48.805 14.9433 45.598 14.2773 13.0895 13.9098C11.2395 13.8888 9.70398 25.0288 10.632 31.7383C12.9715 48.6538 31.345 58.7333 48.2855 52.3953C51.241 51.2893 51.609 50.7393 50.452 49.1568C49.7875 48.2483 49.688 48.2473 46.88 49.1308C32.106 53.7778 18.5315 42.3103 19.841 26.2893C20.3245 20.3748 19.5285 20.8263 28.819 21.1963C37.7665 21.5523 39.1355 21.9668 39.1355 24.3178C39.1355 27.2378 37.0555 28.2808 30.741 28.5278L27.597 28.6508L40.124 39.0258C54.392 50.8423 52.9485 50.0848 55.5525 47.1268C72.998 27.3073 56.998 -4.04469 31.7225 0.431806ZM44.845 2.37381C51.5245 4.70131 58.164 11.0663 59.8675 16.7758C60.7175 19.6263 55.445 18.2803 53.709 15.2038C46.6075 2.62131 29.683 0.115305 18.051 9.92381C14.836 12.6343 13.9305 12.4163 16.6565 9.58781C24.0155 1.95231 35.3265 -0.942194 44.845 2.37381ZM57.1545 2.07131C57.144 2.30281 57.9395 3.42781 58.922 4.57131C69.511 16.8958 68.069 38.5353 55.8505 50.6578C49.372 57.0863 44.552 58.7493 39.07 56.4478L36.254 55.2658L30.945 57.8718C24.9655 60.8063 25.2675 60.5188 26.73 61.8813C28.107 63.1643 28.882 63.1588 32.05 61.8418C35.5635 60.3818 36.0535 60.6123 42.8855 66.9428C50.623 74.1118 51.0065 74.3143 53.768 72.6853C72.5355 61.6153 78.9365 34.2008 67.486 13.9328C65.6105 10.6133 57.205 0.962806 57.1545 2.07131ZM12.312 6.02631C-9.16452 28.3213 -1.35202 67.0663 26.4945 76.3628C31.612 78.0713 32.3435 77.7828 29.5105 75.1748C28.2045 73.9723 27.1355 72.8563 27.1355 72.6948C27.1355 71.8813 28.7285 72.6038 30.69 74.3068C33.9885 77.1708 35.2185 77.9008 36.747 77.9008C38.8195 77.9008 38.481 77.2768 34.669 74.0683C32.7625 72.4638 31.1875 70.9818 31.169 70.7758C31.0705 69.6703 33.013 70.7803 36.6355 73.9008C40.486 77.2173 43.6355 78.5668 43.6355 76.9003C43.6355 76.3853 37.593 70.4653 36.338 69.7508C35.9515 69.5308 35.6355 69.1373 35.6355 68.8758C35.6355 67.7948 37.1365 68.5538 39.9255 71.0463C44.467 75.1043 45.654 75.9008 47.1615 75.9008C49.3795 75.9008 49.1565 74.8203 46.4375 72.4018C45.046 71.1638 42.2385 68.6138 40.1985 66.7358C35.498 62.4073 34.716 62.0973 31.7785 63.3968C28.68 64.7673 27.4695 64.6633 25.403 62.8488C23.169 60.8873 23.181 60.1578 25.4665 58.9853L27.2975 58.0458L24.0915 56.3698C6.75298 47.3068 1.64948 19.9153 14.5025 4.89981C17.461 1.44331 16.006 2.19181 12.312 6.02631ZM41.575 15.6838C43.3295 15.8258 45.467 16.3263 46.325 16.7963C47.8245 17.6173 47.194 17.6558 30.1835 17.7823C20.4475 17.8548 12.4235 17.8548 12.353 17.7823C12.282 17.7098 12.3445 17.0223 12.492 16.2538L12.7605 14.8563L25.573 15.1413C32.62 15.2978 39.821 15.5418 41.575 15.6838Z" fill="white"/>
</svg>
